<?xml version="1.0" encoding="utf-8"?>
<!-- Generator: Adobe Illustrator 15.0.0, SVG Export Plug-In . SVG Version: 6.00 Build 0)  -->
<!DOCTYPE svg PUBLIC "-//W3C//DTD SVG 1.1//EN" "http://www.w3.org/Graphics/SVG/1.1/DTD/svg11.dtd">
<svg version="1.1" id="Layer_1" xmlns="http://www.w3.org/2000/svg" xmlns:xlink="http://www.w3.org/1999/xlink" x="0px" y="0px"
	 width="70px" height="70px" viewBox="0 0 70 70" enable-background="new 0 0 70 70" xml:space="preserve">
<path fill="#35A6E1" d="M53.203,39.213v4.008H42.189c-1.344,0-2.434,1.09-2.434,2.434v11.014H23.314V45.654
	c0-1.344-1.089-2.434-2.434-2.434H9.867V26.779H20.88c1.344,0,2.434-1.089,2.434-2.434V13.332h16.442v11.013
	c0,1.344,1.09,2.434,2.434,2.434h11.014v4.009h4.867v-6.442c0-1.344-1.09-2.434-2.434-2.434H44.623V10.898
	c0-1.344-1.09-2.434-2.434-2.434H20.88c-1.344,0-2.434,1.089-2.434,2.434v11.013H7.434C6.089,21.912,5,23.001,5,24.345v21.309
	c0,1.344,1.089,2.434,2.434,2.434h11.013v11.014c0,1.344,1.089,2.434,2.434,2.434h21.309c1.344,0,2.434-1.09,2.434-2.434V48.088
	h11.014c1.344,0,2.434-1.09,2.434-2.434v-6.441H53.203z"/>
<path fill="#35A6E1" d="M62.07,31.845c-1.129,0-2.108,0.641-2.597,1.577H46.793c-0.379,0-0.736,0.17-0.977,0.462l-0.676,0.826
	l-1.002-3.878c-0.125-0.486-0.527-0.852-1.023-0.931c-0.498-0.079-0.992,0.145-1.263,0.568l-1.882,2.953H38.14
	c-0.487,0-0.931,0.281-1.14,0.721l-0.299,0.631l-0.738-4.919c-0.082-0.547-0.512-0.978-1.059-1.061
	c-0.546-0.082-1.085,0.2-1.326,0.699l-1.946,4.027l-0.436-1.07c-0.204-0.499-0.701-0.815-1.239-0.783
	c-0.538,0.03-0.997,0.398-1.144,0.917l-0.581,2.056l-0.924-6.049c-0.085-0.561-0.534-0.995-1.097-1.062
	c-0.564-0.069-1.102,0.248-1.317,0.772l-2.112,5.123h-5.526c-0.489-0.937-1.467-1.577-2.597-1.577c-1.618,0-2.929,1.312-2.929,2.929
	c0,1.618,1.312,2.93,2.929,2.93c1.201,0,2.232-0.724,2.684-1.758h6.284c0.511,0,0.972-0.309,1.167-0.781l0.704-1.709l1.118,7.323
	c0.089,0.586,0.577,1.031,1.169,1.068c0.026,0.002,0.052,0.002,0.079,0.002c0.561,0,1.06-0.372,1.214-0.918l1.166-4.131l0.122,0.299
	c0.188,0.461,0.63,0.769,1.128,0.783c0.5,0.018,0.959-0.263,1.176-0.711l1.401-2.901l0.746,4.972
	c0.083,0.549,0.513,0.979,1.063,1.062c0.549,0.081,1.087-0.207,1.325-0.708l1.73-3.65h1.727c0.431,0,0.832-0.22,1.064-0.583
	l0.692-1.088l0.897,3.474c0.118,0.46,0.485,0.814,0.949,0.917c0.465,0.103,0.946-0.064,1.248-0.433l1.875-2.287h11.996
	c0.452,1.034,1.482,1.758,2.684,1.758c1.618,0,2.93-1.312,2.93-2.93C65,33.157,63.688,31.845,62.07,31.845z"/>
</svg>
