<?xml version="1.0" encoding="utf-8"?>
<!-- Generator: Adobe Illustrator 15.0.0, SVG Export Plug-In . SVG Version: 6.00 Build 0)  -->
<!DOCTYPE svg PUBLIC "-//W3C//DTD SVG 1.1//EN" "http://www.w3.org/Graphics/SVG/1.1/DTD/svg11.dtd">
<svg version="1.1" id="Layer_1" xmlns="http://www.w3.org/2000/svg" xmlns:xlink="http://www.w3.org/1999/xlink" x="0px" y="0px"
	 width="40px" height="40px" viewBox="0 0 40 40" enable-background="new 0 0 40 40" xml:space="preserve">
<path fill="#A3D4FF" d="M34.626,19.172L23.88,8.426c-0.374-0.373-0.981-0.373-1.356,0c-0.371,0.375-0.371,0.981,0,1.355l9.104,9.103
	H6.071c-0.53,0-0.958,0.429-0.958,0.958c0,0.529,0.429,0.958,0.958,0.958h25.57l-9.115,9.103c-0.373,0.375-0.373,0.979-0.002,1.354
	c0.188,0.188,0.435,0.282,0.681,0.282c0.244,0,0.489-0.094,0.677-0.281l10.746-10.73c0.18-0.18,0.28-0.423,0.28-0.678
	C34.906,19.596,34.807,19.352,34.626,19.172z"/>
</svg>
