<?xml version="1.0" encoding="utf-8"?>
<!-- Generator: Adobe Illustrator 15.0.0, SVG Export Plug-In . SVG Version: 6.00 Build 0)  -->
<!DOCTYPE svg PUBLIC "-//W3C//DTD SVG 1.1//EN" "http://www.w3.org/Graphics/SVG/1.1/DTD/svg11.dtd">
<svg version="1.1" id="Layer_1" xmlns="http://www.w3.org/2000/svg" xmlns:xlink="http://www.w3.org/1999/xlink" x="0px" y="0px"
	 width="14.833px" height="14.833px" viewBox="9.333 9.333 14.833 14.833" enable-background="new 9.333 9.333 14.833 14.833"
	 xml:space="preserve">
<path fill="#FF6D3B" d="M23.527,13.008l-7.989,7.99c-0.17,0.17-0.408,0.271-0.68,0.271H14.79c-0.272,0-0.51-0.102-0.68-0.271
	l-3.978-3.979c-0.17-0.17-0.272-0.408-0.272-0.68c0-0.238,0.102-0.476,0.272-0.68c0.34-0.34,0.986-0.34,1.326,0l3.23,3.23
	c0.068,0.067,0.17,0.067,0.238,0l7.242-7.243c0.34-0.34,0.986-0.34,1.326,0c0.17,0.17,0.271,0.408,0.271,0.68
	S23.698,12.804,23.527,13.008z"/>
</svg>
